<svg width="208" height="23" viewBox="0 0 208 23" fill="none" xmlns="http://www.w3.org/2000/svg">
<rect width="208" height="23" fill="#E5E5E5"/>
<rect width="23" height="22" fill="#FF370A"/>
<path d="M8.58789 4.20312L11.875 13.4844L15.1445 4.20312H18.6074V17H15.9619V13.502L16.2256 7.46387L12.7715 17H10.9609L7.51562 7.47266L7.7793 13.502V17H5.14258V4.20312H8.58789Z" fill="white"/>
<path d="M48 0H25V22H48V0Z" fill="#FF370A"/>
<rect width="23" height="22" transform="translate(50)" fill="#FF370A"/>
<path d="M73 0H50V22H73V0Z" fill="#FF370A"/>
<path d="M62.8799 13.3154H60.7793V18H58.1426V5.20312H62.8975C64.4092 5.20312 65.5752 5.54004 66.3955 6.21387C67.2158 6.8877 67.626 7.83984 67.626 9.07031C67.626 9.94336 67.4355 10.6729 67.0547 11.2588C66.6797 11.8389 66.1084 12.3018 65.3408 12.6475L68.1094 17.877V18H65.2793L62.8799 13.3154ZM60.7793 11.1797H62.9062C63.5684 11.1797 64.0811 11.0127 64.4443 10.6787C64.8076 10.3389 64.9893 9.87305 64.9893 9.28125C64.9893 8.67773 64.8164 8.20312 64.4707 7.85742C64.1309 7.51172 63.6064 7.33887 62.8975 7.33887H60.7793V11.1797Z" fill="white"/>
<path d="M98 0H75V22H98V0Z" fill="#FF370A"/>
<path d="M86.5547 10.9688L89.2178 5.20312H92.1006L87.8994 13.3594V18H85.2188V13.3594L81.0176 5.20312H83.9092L86.5547 10.9688Z" fill="white"/>
<path d="M123 0H100V22H123V0Z" fill="#FF370A"/>
<path d="M114.367 15.3633H109.744L108.865 18H106.062L110.825 5.20312H113.269L118.059 18H115.255L114.367 15.3633ZM110.456 13.2275H113.655L112.047 8.4375L110.456 13.2275Z" fill="white"/>
<path d="M42.6543 11.8916C42.6543 13.1514 42.4316 14.2559 41.9863 15.2051C41.541 16.1543 40.9023 16.8867 40.0703 17.4023C39.2441 17.918 38.2949 18.1758 37.2227 18.1758C36.1621 18.1758 35.2158 17.9209 34.3838 17.4111C33.5518 16.9014 32.9072 16.1748 32.4502 15.2314C31.9932 14.2822 31.7617 13.1924 31.7559 11.9619V11.3291C31.7559 10.0693 31.9814 8.96191 32.4326 8.00684C32.8896 7.0459 33.5312 6.31055 34.3574 5.80078C35.1895 5.28516 36.1387 5.02734 37.2051 5.02734C38.2715 5.02734 39.2178 5.28516 40.0439 5.80078C40.876 6.31055 41.5176 7.0459 41.9688 8.00684C42.4258 8.96191 42.6543 10.0664 42.6543 11.3203V11.8916ZM39.9824 11.3115C39.9824 9.96973 39.7422 8.9502 39.2617 8.25293C38.7812 7.55566 38.0957 7.20703 37.2051 7.20703C36.3203 7.20703 35.6377 7.55273 35.1572 8.24414C34.6768 8.92969 34.4336 9.9375 34.4277 11.2676V11.8916C34.4277 13.1982 34.668 14.2119 35.1484 14.9326C35.6289 15.6533 36.3203 16.0137 37.2227 16.0137C38.1074 16.0137 38.7871 15.668 39.2617 14.9766C39.7363 14.2793 39.9766 13.2656 39.9824 11.9355V11.3115Z" fill="white"/>
<path d="M138.871 19.0674C138.757 20.0449 138.395 20.8003 137.786 21.3335C137.181 21.8625 136.374 22.127 135.367 22.127C134.275 22.127 133.399 21.7355 132.739 20.9526C132.083 20.1698 131.755 19.1224 131.755 17.8105V16.9219C131.755 16.0628 131.908 15.3075 132.212 14.6558C132.521 14.0041 132.957 13.5047 133.52 13.1577C134.083 12.8065 134.735 12.6309 135.475 12.6309C136.457 12.6309 137.244 12.9059 137.836 13.4561C138.429 14.002 138.774 14.7594 138.871 15.7285H137.646C137.54 14.9922 137.31 14.459 136.954 14.1289C136.603 13.7988 136.11 13.6338 135.475 13.6338C134.696 13.6338 134.085 13.9215 133.641 14.4971C133.201 15.0726 132.98 15.8914 132.98 16.9536V17.8486C132.98 18.8516 133.19 19.6493 133.609 20.2417C134.028 20.8341 134.614 21.1304 135.367 21.1304C136.044 21.1304 136.563 20.978 136.922 20.6733C137.286 20.3644 137.528 19.8291 137.646 19.0674H138.871ZM144.597 22C144.529 21.8646 144.474 21.6234 144.432 21.2764C143.886 21.8434 143.234 22.127 142.477 22.127C141.799 22.127 141.243 21.9365 140.807 21.5557C140.375 21.1706 140.16 20.6839 140.16 20.0957C140.16 19.3805 140.431 18.8262 140.972 18.4326C141.518 18.0348 142.284 17.8359 143.27 17.8359H144.413V17.2964C144.413 16.8859 144.29 16.5601 144.044 16.3188C143.799 16.0734 143.437 15.9507 142.959 15.9507C142.54 15.9507 142.189 16.0565 141.905 16.2681C141.622 16.4797 141.48 16.7357 141.48 17.0361H140.299C140.299 16.6934 140.42 16.3633 140.661 16.0459C140.907 15.7243 141.237 15.4704 141.651 15.2842C142.07 15.098 142.529 15.0049 143.029 15.0049C143.82 15.0049 144.44 15.2038 144.889 15.6016C145.337 15.9951 145.57 16.5389 145.587 17.2329V20.394C145.587 21.0246 145.667 21.526 145.828 21.8984V22H144.597ZM142.648 21.105C143.016 21.105 143.365 21.0098 143.695 20.8193C144.025 20.6289 144.264 20.3813 144.413 20.0767V18.6675H143.492C142.053 18.6675 141.334 19.0885 141.334 19.9307C141.334 20.2988 141.457 20.5866 141.702 20.7939C141.948 21.0013 142.263 21.105 142.648 21.105ZM150.748 16.1855C150.57 16.1559 150.377 16.1411 150.17 16.1411C149.4 16.1411 148.877 16.4691 148.602 17.125V22H147.428V15.1318H148.57L148.589 15.9253C148.974 15.3117 149.52 15.0049 150.227 15.0049C150.456 15.0049 150.629 15.0345 150.748 15.0938V16.1855ZM155.407 18.2612H153.236V22H152.011V12.7578H155.07C156.111 12.7578 156.911 12.9948 157.47 13.4688C158.033 13.9427 158.314 14.6325 158.314 15.5381C158.314 16.1136 158.157 16.6151 157.844 17.0425C157.535 17.4699 157.104 17.7894 156.549 18.001L158.72 21.9238V22H157.413L155.407 18.2612ZM153.236 17.2646H155.108C155.714 17.2646 156.194 17.1081 156.549 16.7949C156.909 16.4818 157.089 16.0628 157.089 15.5381C157.089 14.9668 156.917 14.5288 156.575 14.2241C156.236 13.9194 155.745 13.765 155.102 13.7607H153.236V17.2646ZM162.694 22.127C161.763 22.127 161.005 21.8223 160.421 21.2129C159.837 20.5993 159.545 19.7804 159.545 18.7563V18.5405C159.545 17.8592 159.674 17.252 159.933 16.7188C160.195 16.1813 160.559 15.7624 161.024 15.4619C161.494 15.1572 162.002 15.0049 162.548 15.0049C163.441 15.0049 164.135 15.299 164.63 15.8872C165.125 16.4754 165.373 17.3175 165.373 18.4136V18.9023H160.72C160.737 19.5794 160.933 20.1274 161.31 20.5464C161.691 20.9611 162.173 21.1685 162.757 21.1685C163.172 21.1685 163.523 21.0838 163.811 20.9146C164.099 20.7453 164.351 20.521 164.566 20.2417L165.284 20.8003C164.708 21.6847 163.845 22.127 162.694 22.127ZM162.548 15.9697C162.074 15.9697 161.676 16.1432 161.354 16.4902C161.033 16.833 160.834 17.3154 160.758 17.9375H164.198V17.8486C164.164 17.252 164.004 16.7907 163.716 16.4648C163.428 16.1348 163.039 15.9697 162.548 15.9697ZM167.848 15.1318L167.886 15.9951C168.411 15.335 169.097 15.0049 169.943 15.0049C171.394 15.0049 172.126 15.8237 172.139 17.4614V22H170.965V17.4551C170.961 16.96 170.846 16.5939 170.622 16.3569C170.402 16.12 170.057 16.0015 169.587 16.0015C169.207 16.0015 168.872 16.103 168.584 16.3062C168.297 16.5093 168.072 16.7759 167.912 17.106V22H166.737V15.1318H167.848ZM175.503 13.4688V15.1318H176.786V16.0396H175.503V20.2988C175.503 20.5739 175.561 20.7812 175.675 20.9209C175.789 21.0563 175.984 21.124 176.259 21.124C176.394 21.124 176.58 21.0986 176.817 21.0479V22C176.508 22.0846 176.208 22.127 175.916 22.127C175.391 22.127 174.996 21.9683 174.729 21.6509C174.462 21.3335 174.329 20.8828 174.329 20.2988V16.0396H173.079V15.1318H174.329V13.4688H175.503ZM182.403 22C182.336 21.8646 182.281 21.6234 182.238 21.2764C181.692 21.8434 181.041 22.127 180.283 22.127C179.606 22.127 179.05 21.9365 178.614 21.5557C178.182 21.1706 177.966 20.6839 177.966 20.0957C177.966 19.3805 178.237 18.8262 178.779 18.4326C179.325 18.0348 180.091 17.8359 181.077 17.8359H182.219V17.2964C182.219 16.8859 182.097 16.5601 181.851 16.3188C181.606 16.0734 181.244 15.9507 180.766 15.9507C180.347 15.9507 179.995 16.0565 179.712 16.2681C179.428 16.4797 179.287 16.7357 179.287 17.0361H178.106C178.106 16.6934 178.227 16.3633 178.468 16.0459C178.713 15.7243 179.043 15.4704 179.458 15.2842C179.877 15.098 180.336 15.0049 180.835 15.0049C181.627 15.0049 182.247 15.2038 182.695 15.6016C183.144 15.9951 183.377 16.5389 183.394 17.2329V20.394C183.394 21.0246 183.474 21.526 183.635 21.8984V22H182.403ZM180.455 21.105C180.823 21.105 181.172 21.0098 181.502 20.8193C181.832 20.6289 182.071 20.3813 182.219 20.0767V18.6675H181.299C179.86 18.6675 179.141 19.0885 179.141 19.9307C179.141 20.2988 179.263 20.5866 179.509 20.7939C179.754 21.0013 180.069 21.105 180.455 21.105ZM186.51 22H185.336V12.25H186.51V22ZM192.395 20.1782C192.395 19.8608 192.274 19.6154 192.033 19.4419C191.796 19.2642 191.379 19.1118 190.782 18.9849C190.19 18.8579 189.718 18.7056 189.367 18.5278C189.02 18.3501 188.762 18.1385 188.592 17.8931C188.427 17.6476 188.345 17.3556 188.345 17.0171C188.345 16.4543 188.582 15.9782 189.056 15.5889C189.534 15.1995 190.143 15.0049 190.884 15.0049C191.662 15.0049 192.293 15.2059 192.775 15.6079C193.262 16.0099 193.505 16.5241 193.505 17.1504H192.325C192.325 16.8288 192.187 16.5516 191.912 16.3188C191.641 16.0861 191.299 15.9697 190.884 15.9697C190.456 15.9697 190.122 16.0628 189.881 16.249C189.64 16.4352 189.519 16.6785 189.519 16.979C189.519 17.2625 189.631 17.4762 189.855 17.6201C190.08 17.764 190.484 17.9015 191.068 18.0327C191.656 18.1639 192.132 18.3205 192.496 18.5024C192.86 18.6844 193.129 18.9045 193.302 19.1626C193.48 19.4165 193.569 19.7275 193.569 20.0957C193.569 20.7093 193.323 21.2023 192.833 21.5747C192.342 21.9429 191.705 22.127 190.922 22.127C190.372 22.127 189.885 22.0296 189.462 21.835C189.039 21.6403 188.707 21.3695 188.465 21.0225C188.228 20.6712 188.11 20.2925 188.11 19.8862H189.284C189.305 20.2798 189.462 20.5929 189.754 20.8257C190.05 21.0542 190.439 21.1685 190.922 21.1685C191.366 21.1685 191.722 21.0796 191.988 20.9019C192.259 20.7199 192.395 20.4787 192.395 20.1782ZM195.124 21.3843C195.124 21.1812 195.183 21.0119 195.302 20.8765C195.424 20.741 195.606 20.6733 195.848 20.6733C196.089 20.6733 196.271 20.741 196.394 20.8765C196.521 21.0119 196.584 21.1812 196.584 21.3843C196.584 21.5789 196.521 21.7419 196.394 21.873C196.271 22.0042 196.089 22.0698 195.848 22.0698C195.606 22.0698 195.424 22.0042 195.302 21.873C195.183 21.7419 195.124 21.5789 195.124 21.3843ZM199.802 22H198.628V15.1318H199.802V22ZM198.533 13.3101C198.533 13.1196 198.59 12.9588 198.704 12.8276C198.823 12.6965 198.996 12.6309 199.225 12.6309C199.453 12.6309 199.627 12.6965 199.745 12.8276C199.864 12.9588 199.923 13.1196 199.923 13.3101C199.923 13.5005 199.864 13.6592 199.745 13.7861C199.627 13.9131 199.453 13.9766 199.225 13.9766C198.996 13.9766 198.823 13.9131 198.704 13.7861C198.59 13.6592 198.533 13.5005 198.533 13.3101ZM202.798 15.1318L202.836 15.9951C203.361 15.335 204.047 15.0049 204.893 15.0049C206.345 15.0049 207.077 15.8237 207.089 17.4614V22H205.915V17.4551C205.911 16.96 205.797 16.5939 205.572 16.3569C205.352 16.12 205.007 16.0015 204.538 16.0015C204.157 16.0015 203.822 16.103 203.535 16.3062C203.247 16.5093 203.023 16.7759 202.862 17.106V22H201.688V15.1318H202.798Z" fill="white"/>
</svg>
