<svg width="208" height="22" viewBox="0 0 208 22" fill="none" xmlns="http://www.w3.org/2000/svg">
<rect width="208" height="22" fill="#22242A"/>
<rect width="23" height="22" fill="#FF370A"/>
<path d="M8.58789 4.20312L11.875 13.4844L15.1445 4.20312H18.6074V17H15.9619V13.502L16.2256 7.46387L12.7715 17H10.9609L7.51562 7.47266L7.7793 13.502V17H5.14258V4.20312H8.58789Z" fill="white"/>
<path d="M48 0H25V22H48V0Z" fill="#FF370A"/>
<rect width="23" height="22" transform="translate(50)" fill="#FF370A"/>
<path d="M73 0H50V22H73V0Z" fill="#FF370A"/>
<path d="M62.8799 13.3154H60.7793V18H58.1426V5.20312H62.8975C64.4092 5.20312 65.5752 5.54004 66.3955 6.21387C67.2158 6.8877 67.626 7.83984 67.626 9.07031C67.626 9.94336 67.4355 10.6729 67.0547 11.2588C66.6797 11.8389 66.1084 12.3018 65.3408 12.6475L68.1094 17.877V18H65.2793L62.8799 13.3154ZM60.7793 11.1797H62.9062C63.5684 11.1797 64.0811 11.0127 64.4443 10.6787C64.8076 10.3389 64.9893 9.87305 64.9893 9.28125C64.9893 8.67773 64.8164 8.20312 64.4707 7.85742C64.1309 7.51172 63.6064 7.33887 62.8975 7.33887H60.7793V11.1797Z" fill="white"/>
<path d="M98 0H75V22H98V0Z" fill="#FF370A"/>
<path d="M86.5547 10.9688L89.2178 5.20312H92.1006L87.8994 13.3594V18H85.2188V13.3594L81.0176 5.20312H83.9092L86.5547 10.9688Z" fill="white"/>
<path d="M123 0H100V22H123V0Z" fill="#FF370A"/>
<path d="M114.367 15.3633H109.744L108.865 18H106.062L110.825 5.20312H113.269L118.059 18H115.255L114.367 15.3633ZM110.456 13.2275H113.655L112.047 8.4375L110.456 13.2275Z" fill="white"/>
<path d="M42.6543 11.8916C42.6543 13.1514 42.4316 14.2559 41.9863 15.2051C41.541 16.1543 40.9023 16.8867 40.0703 17.4023C39.2441 17.918 38.2949 18.1758 37.2227 18.1758C36.1621 18.1758 35.2158 17.9209 34.3838 17.4111C33.5518 16.9014 32.9072 16.1748 32.4502 15.2314C31.9932 14.2822 31.7617 13.1924 31.7559 11.9619V11.3291C31.7559 10.0693 31.9814 8.96191 32.4326 8.00684C32.8896 7.0459 33.5312 6.31055 34.3574 5.80078C35.1895 5.28516 36.1387 5.02734 37.2051 5.02734C38.2715 5.02734 39.2178 5.28516 40.0439 5.80078C40.876 6.31055 41.5176 7.0459 41.9688 8.00684C42.4258 8.96191 42.6543 10.0664 42.6543 11.3203V11.8916ZM39.9824 11.3115C39.9824 9.96973 39.7422 8.9502 39.2617 8.25293C38.7812 7.55566 38.0957 7.20703 37.2051 7.20703C36.3203 7.20703 35.6377 7.55273 35.1572 8.24414C34.6768 8.92969 34.4336 9.9375 34.4277 11.2676V11.8916C34.4277 13.1982 34.668 14.2119 35.1484 14.9326C35.6289 15.6533 36.3203 16.0137 37.2227 16.0137C38.1074 16.0137 38.7871 15.668 39.2617 14.9766C39.7363 14.2793 39.9766 13.2656 39.9824 11.9355V11.3115Z" fill="white"/>
<path d="M138.871 17.0674C138.757 18.0449 138.395 18.8003 137.786 19.3335C137.181 19.8625 136.374 20.127 135.367 20.127C134.275 20.127 133.399 19.7355 132.739 18.9526C132.083 18.1698 131.755 17.1224 131.755 15.8105V14.9219C131.755 14.0628 131.908 13.3075 132.212 12.6558C132.521 12.0041 132.957 11.5047 133.52 11.1577C134.083 10.8065 134.735 10.6309 135.475 10.6309C136.457 10.6309 137.244 10.9059 137.836 11.4561C138.429 12.002 138.774 12.7594 138.871 13.7285H137.646C137.54 12.9922 137.31 12.459 136.954 12.1289C136.603 11.7988 136.11 11.6338 135.475 11.6338C134.696 11.6338 134.085 11.9215 133.641 12.4971C133.201 13.0726 132.98 13.8914 132.98 14.9536V15.8486C132.98 16.8516 133.19 17.6493 133.609 18.2417C134.028 18.8341 134.614 19.1304 135.367 19.1304C136.044 19.1304 136.563 18.978 136.922 18.6733C137.286 18.3644 137.528 17.8291 137.646 17.0674H138.871ZM144.597 20C144.529 19.8646 144.474 19.6234 144.432 19.2764C143.886 19.8434 143.234 20.127 142.477 20.127C141.799 20.127 141.243 19.9365 140.807 19.5557C140.375 19.1706 140.16 18.6839 140.16 18.0957C140.16 17.3805 140.431 16.8262 140.972 16.4326C141.518 16.0348 142.284 15.8359 143.27 15.8359H144.413V15.2964C144.413 14.8859 144.29 14.5601 144.044 14.3188C143.799 14.0734 143.437 13.9507 142.959 13.9507C142.54 13.9507 142.189 14.0565 141.905 14.2681C141.622 14.4797 141.48 14.7357 141.48 15.0361H140.299C140.299 14.6934 140.42 14.3633 140.661 14.0459C140.907 13.7243 141.237 13.4704 141.651 13.2842C142.07 13.098 142.529 13.0049 143.029 13.0049C143.82 13.0049 144.44 13.2038 144.889 13.6016C145.337 13.9951 145.57 14.5389 145.587 15.2329V18.394C145.587 19.0246 145.667 19.526 145.828 19.8984V20H144.597ZM142.648 19.105C143.016 19.105 143.365 19.0098 143.695 18.8193C144.025 18.6289 144.264 18.3813 144.413 18.0767V16.6675H143.492C142.053 16.6675 141.334 17.0885 141.334 17.9307C141.334 18.2988 141.457 18.5866 141.702 18.7939C141.948 19.0013 142.263 19.105 142.648 19.105ZM150.748 14.1855C150.57 14.1559 150.377 14.1411 150.17 14.1411C149.4 14.1411 148.877 14.4691 148.602 15.125V20H147.428V13.1318H148.57L148.589 13.9253C148.974 13.3117 149.52 13.0049 150.227 13.0049C150.456 13.0049 150.629 13.0345 150.748 13.0938V14.1855ZM155.407 16.2612H153.236V20H152.011V10.7578H155.07C156.111 10.7578 156.911 10.9948 157.47 11.4688C158.033 11.9427 158.314 12.6325 158.314 13.5381C158.314 14.1136 158.157 14.6151 157.844 15.0425C157.535 15.4699 157.104 15.7894 156.549 16.001L158.72 19.9238V20H157.413L155.407 16.2612ZM153.236 15.2646H155.108C155.714 15.2646 156.194 15.1081 156.549 14.7949C156.909 14.4818 157.089 14.0628 157.089 13.5381C157.089 12.9668 156.917 12.5288 156.575 12.2241C156.236 11.9194 155.745 11.765 155.102 11.7607H153.236V15.2646ZM162.694 20.127C161.763 20.127 161.005 19.8223 160.421 19.2129C159.837 18.5993 159.545 17.7804 159.545 16.7563V16.5405C159.545 15.8592 159.674 15.252 159.933 14.7188C160.195 14.1813 160.559 13.7624 161.024 13.4619C161.494 13.1572 162.002 13.0049 162.548 13.0049C163.441 13.0049 164.135 13.299 164.63 13.8872C165.125 14.4754 165.373 15.3175 165.373 16.4136V16.9023H160.72C160.737 17.5794 160.933 18.1274 161.31 18.5464C161.691 18.9611 162.173 19.1685 162.757 19.1685C163.172 19.1685 163.523 19.0838 163.811 18.9146C164.099 18.7453 164.351 18.521 164.566 18.2417L165.284 18.8003C164.708 19.6847 163.845 20.127 162.694 20.127ZM162.548 13.9697C162.074 13.9697 161.676 14.1432 161.354 14.4902C161.033 14.833 160.834 15.3154 160.758 15.9375H164.198V15.8486C164.164 15.252 164.004 14.7907 163.716 14.4648C163.428 14.1348 163.039 13.9697 162.548 13.9697ZM167.848 13.1318L167.886 13.9951C168.411 13.335 169.097 13.0049 169.943 13.0049C171.394 13.0049 172.126 13.8237 172.139 15.4614V20H170.965V15.4551C170.961 14.96 170.846 14.5939 170.622 14.3569C170.402 14.12 170.057 14.0015 169.587 14.0015C169.207 14.0015 168.872 14.103 168.584 14.3062C168.297 14.5093 168.072 14.7759 167.912 15.106V20H166.737V13.1318H167.848ZM175.503 11.4688V13.1318H176.786V14.0396H175.503V18.2988C175.503 18.5739 175.561 18.7812 175.675 18.9209C175.789 19.0563 175.984 19.124 176.259 19.124C176.394 19.124 176.58 19.0986 176.817 19.0479V20C176.508 20.0846 176.208 20.127 175.916 20.127C175.391 20.127 174.996 19.9683 174.729 19.6509C174.462 19.3335 174.329 18.8828 174.329 18.2988V14.0396H173.079V13.1318H174.329V11.4688H175.503ZM182.403 20C182.336 19.8646 182.281 19.6234 182.238 19.2764C181.692 19.8434 181.041 20.127 180.283 20.127C179.606 20.127 179.05 19.9365 178.614 19.5557C178.182 19.1706 177.966 18.6839 177.966 18.0957C177.966 17.3805 178.237 16.8262 178.779 16.4326C179.325 16.0348 180.091 15.8359 181.077 15.8359H182.219V15.2964C182.219 14.8859 182.097 14.5601 181.851 14.3188C181.606 14.0734 181.244 13.9507 180.766 13.9507C180.347 13.9507 179.995 14.0565 179.712 14.2681C179.428 14.4797 179.287 14.7357 179.287 15.0361H178.106C178.106 14.6934 178.227 14.3633 178.468 14.0459C178.713 13.7243 179.043 13.4704 179.458 13.2842C179.877 13.098 180.336 13.0049 180.835 13.0049C181.627 13.0049 182.247 13.2038 182.695 13.6016C183.144 13.9951 183.377 14.5389 183.394 15.2329V18.394C183.394 19.0246 183.474 19.526 183.635 19.8984V20H182.403ZM180.455 19.105C180.823 19.105 181.172 19.0098 181.502 18.8193C181.832 18.6289 182.071 18.3813 182.219 18.0767V16.6675H181.299C179.86 16.6675 179.141 17.0885 179.141 17.9307C179.141 18.2988 179.263 18.5866 179.509 18.7939C179.754 19.0013 180.069 19.105 180.455 19.105ZM186.51 20H185.336V10.25H186.51V20ZM192.395 18.1782C192.395 17.8608 192.274 17.6154 192.033 17.4419C191.796 17.2642 191.379 17.1118 190.782 16.9849C190.19 16.8579 189.718 16.7056 189.367 16.5278C189.02 16.3501 188.762 16.1385 188.592 15.8931C188.427 15.6476 188.345 15.3556 188.345 15.0171C188.345 14.4543 188.582 13.9782 189.056 13.5889C189.534 13.1995 190.143 13.0049 190.884 13.0049C191.662 13.0049 192.293 13.2059 192.775 13.6079C193.262 14.0099 193.505 14.5241 193.505 15.1504H192.325C192.325 14.8288 192.187 14.5516 191.912 14.3188C191.641 14.0861 191.299 13.9697 190.884 13.9697C190.456 13.9697 190.122 14.0628 189.881 14.249C189.64 14.4352 189.519 14.6785 189.519 14.979C189.519 15.2625 189.631 15.4762 189.855 15.6201C190.08 15.764 190.484 15.9015 191.068 16.0327C191.656 16.1639 192.132 16.3205 192.496 16.5024C192.86 16.6844 193.129 16.9045 193.302 17.1626C193.48 17.4165 193.569 17.7275 193.569 18.0957C193.569 18.7093 193.323 19.2023 192.833 19.5747C192.342 19.9429 191.705 20.127 190.922 20.127C190.372 20.127 189.885 20.0296 189.462 19.835C189.039 19.6403 188.707 19.3695 188.465 19.0225C188.228 18.6712 188.11 18.2925 188.11 17.8862H189.284C189.305 18.2798 189.462 18.5929 189.754 18.8257C190.05 19.0542 190.439 19.1685 190.922 19.1685C191.366 19.1685 191.722 19.0796 191.988 18.9019C192.259 18.7199 192.395 18.4787 192.395 18.1782ZM195.124 19.3843C195.124 19.1812 195.183 19.0119 195.302 18.8765C195.424 18.741 195.606 18.6733 195.848 18.6733C196.089 18.6733 196.271 18.741 196.394 18.8765C196.521 19.0119 196.584 19.1812 196.584 19.3843C196.584 19.5789 196.521 19.7419 196.394 19.873C196.271 20.0042 196.089 20.0698 195.848 20.0698C195.606 20.0698 195.424 20.0042 195.302 19.873C195.183 19.7419 195.124 19.5789 195.124 19.3843ZM199.802 20H198.628V13.1318H199.802V20ZM198.533 11.3101C198.533 11.1196 198.59 10.9588 198.704 10.8276C198.823 10.6965 198.996 10.6309 199.225 10.6309C199.453 10.6309 199.627 10.6965 199.745 10.8276C199.864 10.9588 199.923 11.1196 199.923 11.3101C199.923 11.5005 199.864 11.6592 199.745 11.7861C199.627 11.9131 199.453 11.9766 199.225 11.9766C198.996 11.9766 198.823 11.9131 198.704 11.7861C198.59 11.6592 198.533 11.5005 198.533 11.3101ZM202.798 13.1318L202.836 13.9951C203.361 13.335 204.047 13.0049 204.893 13.0049C206.345 13.0049 207.077 13.8237 207.089 15.4614V20H205.915V15.4551C205.911 14.96 205.797 14.5939 205.572 14.3569C205.352 14.12 205.007 14.0015 204.538 14.0015C204.157 14.0015 203.822 14.103 203.535 14.3062C203.247 14.5093 203.023 14.7759 202.862 15.106V20H201.688V13.1318H202.798Z" fill="#8E8A8A"/>
</svg>
